<svg width="101" height="26" viewBox="0 0 101 26" fill="none" xmlns="http://www.w3.org/2000/svg">
<path d="M15.769 12.301C15.7796 11.4663 16.0013 10.6478 16.4135 9.92185C16.8256 9.19588 17.4147 8.586 18.126 8.14901C17.6741 7.50388 17.078 6.97302 16.385 6.59859C15.692 6.22415 14.9213 6.01646 14.134 5.99201C12.455 5.81501 10.827 6.99601 9.97099 6.99601C9.09899 6.99601 7.78099 6.00901 6.36299 6.03801C5.44528 6.06763 4.5509 6.33449 3.767 6.81257C2.9831 7.29066 2.33642 7.96367 1.88999 8.76601C-0.0440124 12.115 1.39899 17.036 3.25099 19.742C4.17799 21.068 5.26099 22.548 6.67899 22.495C8.06599 22.438 8.58399 21.611 10.259 21.611C11.917 21.611 12.403 22.495 13.849 22.462C15.338 22.438 16.275 21.131 17.169 19.793C17.8355 18.8489 18.3485 17.8054 18.689 16.701C17.824 16.3353 17.0858 15.7231 16.5666 14.9406C16.0473 14.1582 15.7699 13.2401 15.769 12.301ZM13.037 4.21101C13.8486 3.23706 14.2486 1.98511 14.152 0.721011C12.9119 0.851187 11.7665 1.44391 10.944 2.38101C10.5421 2.83852 10.2343 3.37075 10.0381 3.94728C9.84203 4.5238 9.76144 5.13333 9.80099 5.74101C10.421 5.74733 11.0343 5.61292 11.5948 5.3479C12.1553 5.08289 12.6484 4.69417 13.037 4.21101ZM33.302 19.14H28.57L27.433 22.496H25.428L29.912 10.078H31.995L36.478 22.496H34.439L33.303 19.14H33.302ZM29.059 17.59H32.811L30.961 12.144H30.91L29.06 17.591L29.059 17.59ZM46.16 17.97C46.16 20.783 44.654 22.59 42.381 22.59C41.8054 22.6202 41.233 22.4876 40.7293 22.2074C40.2256 21.9273 39.811 21.5109 39.533 21.006H39.49V25.491H37.63V13.442H39.43V14.948H39.463C39.7539 14.4455 40.1757 14.0313 40.6834 13.7496C41.1911 13.4678 41.7657 13.329 42.346 13.348C44.644 13.348 46.16 15.164 46.16 17.97ZM44.25 17.97C44.25 16.137 43.302 14.931 41.857 14.931C40.437 14.931 39.482 16.161 39.482 17.969C39.482 19.794 40.437 21.015 41.857 21.015C43.302 21.015 44.249 19.819 44.249 17.969L44.25 17.97ZM56.124 17.97C56.124 20.783 54.619 22.59 52.346 22.59C51.7705 22.6199 51.1981 22.4872 50.6945 22.2071C50.1908 21.927 49.7762 21.5107 49.498 21.006H49.455V25.491H47.596V13.442H49.395V14.948H49.429C49.7199 14.4455 50.1417 14.0313 50.6494 13.7496C51.1571 13.4678 51.7317 13.329 52.312 13.348C54.61 13.348 56.125 15.164 56.125 17.969L56.124 17.97ZM54.214 17.97C54.214 16.136 53.267 14.931 51.822 14.931C50.402 14.931 49.447 16.161 49.447 17.969C49.447 19.794 50.402 21.015 51.822 21.015C53.267 21.015 54.214 19.82 54.214 17.97ZM62.71 19.036C62.848 20.268 64.045 21.076 65.68 21.076C67.246 21.076 68.373 20.268 68.373 19.157C68.373 18.193 67.693 17.617 66.083 17.221L64.474 16.833C62.194 16.283 61.135 15.216 61.135 13.485C61.135 11.343 63.002 9.87101 65.654 9.87101C68.278 9.87101 70.077 11.343 70.137 13.485H68.261C68.149 12.246 67.125 11.498 65.627 11.498C64.13 11.498 63.106 12.255 63.106 13.356C63.106 14.234 63.76 14.751 65.361 15.146L66.729 15.482C69.277 16.085 70.335 17.108 70.335 18.925C70.335 21.248 68.485 22.703 65.542 22.703C62.788 22.703 60.928 21.283 60.808 19.036H62.71ZM74.346 11.3V13.442H76.068V14.914H74.346V19.905C74.346 20.681 74.691 21.042 75.448 21.042C75.652 21.038 75.856 21.024 76.059 20.999V22.462C75.719 22.526 75.373 22.554 75.027 22.548C73.194 22.548 72.479 21.859 72.479 20.104V14.914H71.163V13.442H72.479V11.3H74.346ZM77.065 17.97C77.065 15.121 78.743 13.331 81.359 13.331C83.984 13.331 85.654 15.121 85.654 17.97C85.654 20.826 83.993 22.608 81.359 22.608C78.726 22.608 77.065 20.826 77.065 17.97ZM83.76 17.97C83.76 16.016 82.865 14.862 81.359 14.862C79.853 14.862 78.959 16.024 78.959 17.97C78.959 19.932 79.853 21.076 81.359 21.076C82.865 21.076 83.76 19.932 83.76 17.97ZM87.186 13.442H88.958V14.983H89.001C89.121 14.5017 89.403 14.0763 89.7996 13.7784C90.1962 13.4805 90.6833 13.3281 91.179 13.347C91.393 13.347 91.607 13.37 91.816 13.417V15.155C91.5456 15.0724 91.2636 15.0346 90.981 15.043C90.7109 15.0319 90.4417 15.0794 90.1917 15.1822C89.9418 15.285 89.717 15.4407 89.533 15.6386C89.3489 15.8366 89.2099 16.072 89.1255 16.3287C89.0411 16.5855 89.0133 16.8575 89.044 17.126V22.496H87.186V13.442ZM100.384 19.837C100.134 21.48 98.534 22.608 96.486 22.608C93.852 22.608 92.217 20.844 92.217 18.013C92.217 15.173 93.861 13.331 96.408 13.331C98.913 13.331 100.488 15.051 100.488 17.797V18.434H94.093V18.546C94.0631 18.8793 94.1047 19.215 94.2149 19.5309C94.3251 19.8469 94.5014 20.1356 94.732 20.378C94.9627 20.6202 95.2421 20.8107 95.5519 20.9369C95.8617 21.0631 96.1947 21.1221 96.529 21.11C96.9682 21.1518 97.4091 21.0504 97.786 20.821C98.1629 20.5915 98.4554 20.2464 98.62 19.837H100.384ZM94.102 17.135H98.628C98.6453 16.8354 98.6002 16.5354 98.4956 16.2542C98.3909 15.9729 98.229 15.7164 98.02 15.501C97.8119 15.2848 97.5611 15.1141 97.2837 14.9998C97.0062 14.8855 96.708 14.8301 96.408 14.837C96.1053 14.8353 95.8054 14.8935 95.5253 15.0083C95.2453 15.1231 94.9908 15.2921 94.7764 15.5058C94.562 15.7194 94.3921 15.9733 94.2763 16.253C94.1606 16.5326 94.1013 16.8324 94.102 17.135ZM28.826 0.731011C29.2156 0.703055 29.6066 0.761919 29.9708 0.903358C30.3349 1.0448 30.6631 1.26528 30.9317 1.54892C31.2004 1.83256 31.4027 2.17227 31.5241 2.54356C31.6456 2.91485 31.6831 3.30846 31.634 3.69601C31.634 5.60201 30.604 6.69801 28.826 6.69801H26.671V0.731011H28.826ZM27.598 5.85401H28.723C29.0013 5.87033 29.2797 5.82445 29.538 5.71971C29.7964 5.61497 30.0282 5.45401 30.2165 5.2485C30.4049 5.043 30.5451 4.79812 30.627 4.53166C30.7089 4.26519 30.7304 3.98383 30.69 3.70801C30.7275 3.43331 30.7039 3.15369 30.6208 2.88919C30.5377 2.62468 30.3971 2.38182 30.2091 2.178C30.0212 1.97417 29.7905 1.81442 29.5335 1.71018C29.2766 1.60594 28.9998 1.55978 28.723 1.57501H27.598V5.85401ZM32.68 4.44501C32.6528 4.14965 32.6874 3.85186 32.7818 3.57066C32.8762 3.28946 33.0282 3.03103 33.228 2.81188C33.4279 2.59274 33.6713 2.41768 33.9427 2.29791C34.214 2.17814 34.5074 2.11627 34.804 2.11627C35.1006 2.11627 35.394 2.17814 35.6653 2.29791C35.9367 2.41768 36.1801 2.59274 36.3799 2.81188C36.5798 3.03103 36.7318 3.28946 36.8262 3.57066C36.9205 3.85186 36.9552 4.14965 36.928 4.44501C36.9544 4.73984 36.9191 5.03694 36.8244 5.31739C36.7297 5.59784 36.5776 5.85549 36.3778 6.07394C36.1781 6.29239 35.935 6.46684 35.6642 6.5862C35.3933 6.70556 35.1005 6.7672 34.8045 6.7672C34.5085 6.7672 34.2157 6.70556 33.9448 6.5862C33.6739 6.46684 33.4309 6.29239 33.2311 6.07394C33.0314 5.85549 32.8793 5.59784 32.7846 5.31739C32.6899 5.03694 32.6536 4.73984 32.68 4.44501ZM36.014 4.44501C36.014 3.46901 35.575 2.89801 34.805 2.89801C34.033 2.89801 33.599 3.46801 33.599 4.44501C33.599 5.42901 34.033 5.99501 34.806 5.99501C35.575 5.99501 36.014 5.42501 36.014 4.44501ZM42.573 6.69701H41.651L40.721 3.38101H40.651L39.724 6.69701H38.811L37.569 2.19401H38.471L39.277 5.63001H39.344L40.269 2.19401H41.122L42.048 5.63001H42.118L42.921 2.19401H43.81L42.573 6.69701ZM44.853 2.19501H45.709V2.91001H45.775C45.8877 2.65309 46.0778 2.43774 46.3187 2.29398C46.5596 2.15022 46.8394 2.08521 47.119 2.10801C47.3381 2.09174 47.558 2.12492 47.7625 2.20509C47.9671 2.28527 48.151 2.41038 48.3007 2.57119C48.4503 2.732 48.562 2.9244 48.6273 3.13415C48.6926 3.34391 48.7099 3.56566 48.678 3.78301V6.69801H47.789V4.00601C47.789 3.28201 47.475 2.92201 46.817 2.92201C46.6683 2.91529 46.5199 2.94076 46.382 2.99665C46.244 3.05255 46.1198 3.13757 46.0177 3.2459C45.9157 3.35423 45.8382 3.48331 45.7906 3.62434C45.743 3.76536 45.7264 3.91499 45.742 4.06301V6.69801H44.853V2.19501ZM50.094 0.437012H50.982V6.69701H50.094V0.437012ZM52.218 4.44401C52.1908 4.14865 52.2254 3.85086 52.3198 3.56966C52.4142 3.28846 52.5662 3.03003 52.766 2.81088C52.9659 2.59174 53.2093 2.41668 53.4807 2.29691C53.752 2.17714 54.0454 2.11527 54.342 2.11527C54.6386 2.11527 54.932 2.17714 55.2033 2.29691C55.4747 2.41668 55.7181 2.59174 55.9179 2.81088C56.1178 3.03003 56.2698 3.28846 56.3642 3.56966C56.4585 3.85086 56.4932 4.14865 56.466 4.44401C56.4948 4.74026 56.4613 5.03925 56.3676 5.32177C56.274 5.6043 56.1223 5.86411 55.9222 6.08452C55.7222 6.30492 55.4783 6.48104 55.2061 6.60157C54.934 6.7221 54.6396 6.78436 54.342 6.78436C54.0443 6.78436 53.75 6.7221 53.4779 6.60157C53.2057 6.48104 52.9618 6.30492 52.7617 6.08452C52.5617 5.86411 52.41 5.6043 52.3164 5.32177C52.2227 5.03925 52.1892 4.74026 52.218 4.44401ZM55.551 4.44401C55.551 3.46801 55.112 2.89701 54.343 2.89701C53.571 2.89701 53.136 3.46701 53.136 4.44401C53.136 5.42801 53.571 5.99401 54.343 5.99401C55.113 5.99401 55.551 5.42401 55.551 4.44401ZM57.4 5.42501C57.4 4.61501 58.004 4.14701 59.076 4.08101L60.296 4.01101V3.62101C60.296 3.14601 59.981 2.87701 59.374 2.87701C58.877 2.87701 58.534 3.06001 58.435 3.37701H57.575C57.665 2.60401 58.393 2.10801 59.415 2.10801C60.543 2.10801 61.18 2.67001 61.18 3.62201V6.69801H60.325V6.06501H60.255C60.1122 6.29207 59.9118 6.47717 59.674 6.60138C59.4363 6.7256 59.1699 6.78448 58.902 6.77201C58.713 6.79171 58.522 6.77159 58.3412 6.71295C58.1605 6.6543 57.9941 6.55844 57.8526 6.43153C57.7112 6.30462 57.598 6.14948 57.5202 5.97612C57.4424 5.80276 57.4008 5.61502 57.4 5.42501ZM60.295 5.04001V4.66401L59.195 4.73401C58.575 4.77501 58.295 4.98601 58.295 5.38401C58.295 5.78901 58.646 6.02401 59.129 6.02401C59.2706 6.03828 59.4136 6.02395 59.5496 5.98185C59.6855 5.93976 59.8116 5.87077 59.9204 5.77898C60.0292 5.68719 60.1184 5.57447 60.1827 5.44753C60.2471 5.32058 60.2853 5.182 60.295 5.04001ZM62.348 4.44401C62.348 3.02101 63.08 2.12001 64.218 2.12001C64.4993 2.10721 64.7784 2.17469 65.0227 2.31458C65.2671 2.45446 65.4666 2.66098 65.598 2.91001H65.665V0.437012H66.553V6.69701H65.702V5.98601H65.632C65.4902 6.23352 65.2834 6.43751 65.034 6.57588C64.7846 6.71425 64.502 6.78173 64.217 6.77101C63.072 6.77101 62.348 5.87101 62.348 4.44401ZM63.266 4.44401C63.266 5.39901 63.716 5.97401 64.469 5.97401C65.219 5.97401 65.681 5.39101 65.681 4.44801C65.681 3.50901 65.213 2.91801 64.469 2.91801C63.721 2.91801 63.266 3.49701 63.266 4.44401ZM70.23 4.44501C70.202 4.14927 70.2361 3.85094 70.33 3.56913C70.424 3.28732 70.5758 3.02825 70.7757 2.80852C70.9756 2.58878 71.2192 2.41323 71.4909 2.2931C71.7626 2.17297 72.0564 2.11092 72.3535 2.11092C72.6505 2.11092 72.9443 2.17297 73.216 2.2931C73.4877 2.41323 73.7313 2.58878 73.9312 2.80852C74.1311 3.02825 74.283 3.28732 74.3769 3.56913C74.4709 3.85094 74.505 4.14927 74.477 4.44501C74.5034 4.73984 74.4681 5.03694 74.3734 5.31739C74.2787 5.59784 74.1266 5.85549 73.9268 6.07394C73.7271 6.29239 73.484 6.46684 73.2131 6.5862C72.9423 6.70556 72.6495 6.7672 72.3535 6.7672C72.0575 6.7672 71.7647 6.70556 71.4938 6.5862C71.2229 6.46684 70.9799 6.29239 70.7801 6.07394C70.5804 5.85549 70.4283 5.59784 70.3336 5.31739C70.2389 5.03694 70.2036 4.73984 70.23 4.44501ZM73.563 4.44501C73.563 3.46901 73.124 2.89801 72.355 2.89801C71.582 2.89801 71.148 3.46801 71.148 4.44501C71.148 5.42901 71.582 5.99501 72.355 5.99501C73.125 5.99501 73.563 5.42501 73.563 4.44501ZM75.67 2.19501H76.525V2.91001H76.591C76.7038 2.65319 76.8939 2.43792 77.1348 2.29418C77.3757 2.15043 77.6554 2.08536 77.935 2.10801C78.1541 2.09174 78.374 2.12492 78.5785 2.20509C78.7831 2.28527 78.967 2.41038 79.1167 2.57119C79.2663 2.732 79.3779 2.9244 79.4433 3.13415C79.5086 3.34391 79.5259 3.56566 79.494 3.78301V6.69801H78.605V4.00601C78.605 3.28201 78.29 2.92201 77.633 2.92201C77.4843 2.91529 77.3359 2.94076 77.198 2.99665C77.06 3.05255 76.9358 3.13757 76.8337 3.2459C76.7317 3.35423 76.6542 3.48331 76.6066 3.62434C76.559 3.76536 76.5424 3.91499 76.558 4.06301V6.69801H75.669L75.67 2.19501ZM84.515 1.07401V2.21601H85.491V2.96401H84.515V5.28001C84.515 5.75201 84.71 5.95801 85.152 5.95801C85.265 5.95801 85.378 5.95101 85.491 5.93801V6.67801C85.331 6.70601 85.169 6.72101 85.007 6.72301C84.019 6.72301 83.625 6.37501 83.625 5.50701V2.96401H82.911V2.21601H83.626V1.07401H84.515ZM86.705 0.437012H87.585V2.91801H87.655C87.7732 2.65849 87.9685 2.44174 88.2144 2.29732C88.4603 2.1529 88.7448 2.08784 89.029 2.11101C89.2468 2.09955 89.4645 2.13623 89.6666 2.21844C89.8687 2.30065 90.0501 2.42637 90.1981 2.58666C90.3461 2.74695 90.4569 2.93788 90.5228 3.14586C90.5886 3.35384 90.6078 3.57377 90.579 3.79001V6.69701H89.69V4.01001C89.69 3.29101 89.355 2.92701 88.727 2.92701C88.5742 2.91412 88.4205 2.93484 88.2765 2.98773C88.1326 3.04061 88.002 3.12437 87.894 3.23312C87.7859 3.34187 87.7029 3.47297 87.6509 3.6172C87.5989 3.76144 87.5792 3.91531 87.593 4.06801V6.69801H86.705V0.437012ZM95.761 5.48201C95.641 5.89392 95.3796 6.2503 95.0227 6.48845C94.6658 6.7266 94.2364 6.83126 93.81 6.78401C93.5134 6.79154 93.2188 6.73451 92.9464 6.6169C92.6741 6.49928 92.4306 6.32387 92.2328 6.10283C92.0349 5.88178 91.8875 5.62038 91.8007 5.33672C91.7139 5.05306 91.6898 4.75392 91.73 4.46001C91.6908 4.16497 91.715 3.86496 91.801 3.58001C91.9318 3.1512 92.1977 2.77613 92.559 2.51069C92.9203 2.24526 93.3577 2.10367 93.806 2.10701C95.059 2.10701 95.815 2.96301 95.815 4.37701V4.68701H92.635V4.73701C92.621 4.90233 92.6418 5.06874 92.696 5.22556C92.7501 5.38238 92.8365 5.52614 92.9495 5.64761C93.0625 5.76908 93.1996 5.86559 93.3521 5.93093C93.5046 5.99626 93.6691 6.02899 93.835 6.02701C94.0475 6.05287 94.2628 6.01484 94.4536 5.91777C94.6443 5.8207 94.8018 5.66899 94.906 5.48201H95.761ZM92.635 4.03001H94.91C94.9258 3.80233 94.87 3.57541 94.7504 3.38103C94.6307 3.18665 94.4533 3.03455 94.243 2.94601C94.103 2.88815 93.9524 2.86022 93.801 2.86401C93.6473 2.862 93.4948 2.89078 93.3524 2.94866C93.21 3.00654 93.0807 3.09236 92.972 3.20103C92.8633 3.30971 92.7775 3.43905 92.7196 3.58143C92.6618 3.7238 92.633 3.87633 92.635 4.03001Z" fill="white"/>
</svg>
