<svg width="32" height="32" viewBox="0 0 32 32" fill="none" xmlns="http://www.w3.org/2000/svg">
<g clip-path="url(#clip0_34_68)">
<path d="M16 32C24.8366 32 32 24.8366 32 16C32 7.16344 24.8366 0 16 0C7.16344 0 0 7.16344 0 16C0 24.8366 7.16344 32 16 32Z" fill="#A3A3A3" fill-opacity="0.2"/>
<path fill-rule="evenodd" clip-rule="evenodd" d="M5 4C5 2.93913 5.42143 1.92172 6.17157 1.17157C6.92172 0.421427 7.93913 0 9 0L23 0C24.0609 0 25.0783 0.421427 25.8284 1.17157C26.5786 1.92172 27 2.93913 27 4V17H25V4C25 3.46957 24.7893 2.96086 24.4142 2.58579C24.0391 2.21071 23.5304 2 23 2H21.618C21.4323 2.0001 21.2504 2.05188 21.0925 2.14955C20.9346 2.24722 20.807 2.38692 20.724 2.553L20.276 3.447C20.193 3.61308 20.0654 3.75278 19.9075 3.85045C19.7496 3.94812 19.5677 3.9999 19.382 4H12.618C12.4323 3.9999 12.2504 3.94812 12.0925 3.85045C11.9346 3.75278 11.807 3.61308 11.724 3.447L11.276 2.553C11.193 2.38692 11.0654 2.24722 10.9075 2.14955C10.7496 2.05188 10.5677 2.0001 10.382 2H9C8.46957 2 7.96086 2.21071 7.58579 2.58579C7.21071 2.96086 7 3.46957 7 4V28C7 28.5304 7.21071 29.0391 7.58579 29.4142C7.96086 29.7893 8.46957 30 9 30H13V32H9C7.93913 32 6.92172 31.5786 6.17157 30.8284C5.42143 30.0783 5 29.0609 5 28V4Z" fill="#A3A3A3"/>
<path d="M7 22C7 17.306 10.5 14 15 14" stroke="url(#paint0_linear_34_68)" stroke-width="2" stroke-linecap="round" stroke-linejoin="round"/>
<path d="M21 20L21.217 14.487C21.2291 14.1191 21.099 13.7607 20.8538 13.4862C20.6085 13.2118 20.2669 13.0424 19.8999 13.0133C19.533 12.9842 19.169 13.0976 18.8835 13.33C18.598 13.5624 18.413 13.8958 18.367 14.261L17.5 21.5L15.99 19.99C15.7944 19.7943 15.5621 19.6391 15.3064 19.5331C15.0508 19.4272 14.7767 19.3727 14.5 19.3727C14.2233 19.3727 13.9493 19.4272 13.6936 19.5331C13.438 19.6391 13.2057 19.7943 13.01 19.99C13.0071 19.9932 13.0051 19.9971 13.0042 20.0013C13.0033 20.0055 13.0036 20.0099 13.005 20.014L16.088 29.264C16.3534 30.0606 16.8627 30.7536 17.5438 31.2447C18.2249 31.7357 19.0433 32 19.883 32H25C26.0609 32 27.0783 31.5785 27.8284 30.8284C28.5786 30.0783 29 29.0608 29 28V23C29 22.2043 28.684 21.4413 28.1213 20.8787C27.5587 20.316 26.7957 20 26 20H21Z" fill="#A3A3A3"/>
</g>
<defs>
<linearGradient id="paint0_linear_34_68" x1="14" y1="14.5" x2="7" y2="17" gradientUnits="userSpaceOnUse">
<stop stop-color="#737373"/>
<stop offset="1" stop-color="#D4D4D4" stop-opacity="0"/>
</linearGradient>
<clipPath id="clip0_34_68">
<rect width="32" height="32" fill="white"/>
</clipPath>
</defs>
</svg>
