<svg width="32" height="32" viewBox="0 0 32 32" fill="none" xmlns="http://www.w3.org/2000/svg">
<path d="M16 32C24.8366 32 32 24.8366 32 16C32 7.16344 24.8366 0 16 0C7.16344 0 0 7.16344 0 16C0 24.8366 7.16344 32 16 32Z" fill="#A3A3A3" fill-opacity="0.2"/>
<path fill-rule="evenodd" clip-rule="evenodd" d="M16 23C16.7956 23 17.5587 22.6839 18.1213 22.1213C18.6839 21.5587 19 20.7956 19 20C19 19.2044 18.6839 18.4413 18.1213 17.8787C17.5587 17.3161 16.7956 17 16 17C15.2044 17 14.4413 17.3161 13.8787 17.8787C13.3161 18.4413 13 19.2044 13 20C13 20.7956 13.3161 21.5587 13.8787 22.1213C14.4413 22.6839 15.2044 23 16 23ZM15 25C13.9391 25 12.9217 25.4214 12.1716 26.1716C11.4214 26.9217 11 27.9391 11 29V30C11 30.5304 11.2107 31.0391 11.5858 31.4142C11.9609 31.7893 12.4696 32 13 32H19C19.5304 32 20.0391 31.7893 20.4142 31.4142C20.7893 31.0391 21 30.5304 21 30V29C21 27.9391 20.5786 26.9217 19.8284 26.1716C19.0783 25.4214 18.0609 25 17 25H15Z" fill="#737373"/>
<path fill-rule="evenodd" clip-rule="evenodd" d="M5 4C5 2.93913 5.42143 1.92172 6.17157 1.17157C6.92172 0.421427 7.93913 0 9 0L23 0C24.0609 0 25.0783 0.421427 25.8284 1.17157C26.5786 1.92172 27 2.93913 27 4V28C27 28.8887 26.7041 29.7521 26.1591 30.4541C25.6141 31.1561 24.851 31.6567 23.99 31.877C23.455 32.013 23 31.552 23 31C23 30.448 23.474 30.02 23.959 29.756C24.2742 29.5838 24.5372 29.3298 24.7204 29.0208C24.9036 28.7118 25.0002 28.3592 25 28V4C25 3.46957 24.7893 2.96086 24.4142 2.58579C24.0391 2.21071 23.5304 2 23 2H21.618C21.4323 2.0001 21.2504 2.05188 21.0925 2.14955C20.9346 2.24722 20.807 2.38692 20.724 2.553L20.276 3.447C20.193 3.61308 20.0654 3.75278 19.9075 3.85045C19.7496 3.94812 19.5677 3.9999 19.382 4H12.618C12.4323 3.9999 12.2504 3.94812 12.0925 3.85045C11.9346 3.75278 11.807 3.61308 11.724 3.447L11.276 2.553C11.193 2.38692 11.0654 2.24722 10.9075 2.14955C10.7496 2.05188 10.5677 2.0001 10.382 2H9C8.46957 2 7.96086 2.21071 7.58579 2.58579C7.21071 2.96086 7 3.46957 7 4V28C6.99984 28.3592 7.09642 28.7118 7.27959 29.0208C7.46277 29.3298 7.72578 29.5838 8.041 29.756C8.525 30.02 9 30.448 9 31C9 31.552 8.545 32.013 8.01 31.877C7.14902 31.6567 6.38586 31.1561 5.84086 30.4541C5.29586 29.7521 5.00002 28.8887 5 28V4Z" fill="#A3A3A3"/>
</svg>
