<?xml version="1.0" encoding="UTF-8"?>
<svg id="_레이어_1" data-name="레이어_1" xmlns="http://www.w3.org/2000/svg" version="1.1" viewBox="0 0 105 40">
  <!-- Generator: Adobe Illustrator 29.1.0, SVG Export Plug-In . SVG Version: 2.1.0 Build 142)  -->
  <defs>
    <style>
      .st0 {
        fill: #06b6d4;
        fill-rule: evenodd;
      }
    </style>
  </defs>
  <path class="st0" d="M20,40C8.95,40,0,31.05,0,20S8.95,0,20,0s20,8.95,20,20-8.95,20-20,20ZM4,20c0,7.26,5.16,13.32,12.02,14.7,1.62.33,2.98-1.05,2.98-2.7V8c0-1.66-1.36-3.03-2.98-2.7-6.86,1.38-12.02,7.44-12.02,14.7Z"/>
  <path d="M53.15,26v-11.64h4.36c.89,0,1.64.17,2.25.5.61.33,1.07.79,1.38,1.38.31.58.47,1.24.47,1.98s-.16,1.41-.47,1.99c-.31.58-.78,1.04-1.39,1.37-.61.33-1.37.49-2.27.49h-2.89v-1.73h2.61c.52,0,.95-.09,1.28-.27.33-.18.58-.43.74-.75.16-.32.24-.68.24-1.1s-.08-.78-.24-1.09c-.16-.31-.41-.56-.74-.73-.33-.18-.76-.27-1.29-.27h-1.93v9.88h-2.11ZM67.04,26.17c-.85,0-1.59-.19-2.22-.56s-1.11-.9-1.45-1.57c-.34-.67-.51-1.46-.51-2.36s.17-1.69.51-2.37c.34-.68.83-1.2,1.45-1.58s1.36-.56,2.22-.56,1.59.19,2.22.56,1.11.9,1.45,1.58c.34.68.52,1.47.52,2.37s-.17,1.69-.52,2.36c-.34.67-.82,1.2-1.45,1.57s-1.36.56-2.22.56ZM67.05,24.52c.46,0,.85-.13,1.16-.38.31-.26.54-.6.69-1.03.16-.43.23-.91.23-1.44s-.08-1.02-.23-1.45c-.15-.44-.38-.78-.69-1.04-.31-.26-.7-.39-1.16-.39s-.87.13-1.18.39c-.31.26-.54.6-.7,1.04-.15.43-.23.91-.23,1.45s.08,1.01.23,1.44c.16.43.39.78.7,1.03.31.25.71.38,1.18.38ZM76.77,26.17c-.87,0-1.62-.19-2.24-.57-.62-.38-1.1-.91-1.44-1.59-.33-.68-.5-1.46-.5-2.34s.17-1.67.51-2.35c.34-.68.82-1.21,1.44-1.59.62-.38,1.36-.57,2.22-.57.71,0,1.34.13,1.88.39.55.26.99.62,1.31,1.1.33.47.51,1.02.56,1.65h-1.97c-.08-.42-.27-.77-.57-1.05-.3-.28-.69-.43-1.19-.43-.42,0-.79.11-1.11.34-.32.22-.57.55-.74.97-.17.42-.26.92-.26,1.51s.09,1.11.26,1.53c.17.42.42.75.73.98.32.23.69.34,1.12.34.3,0,.57-.06.81-.17.24-.12.45-.29.61-.51.16-.22.27-.49.34-.8h1.97c-.05.62-.23,1.16-.55,1.64-.31.47-.74.84-1.28,1.11-.54.27-1.18.4-1.91.4ZM84.07,23.26v-2.48s.32,0,.32,0l3.14-3.51h2.4l-3.86,4.3h-.43l-1.58,1.69ZM82.2,26v-11.64h2.06v11.64h-2.06ZM87.67,26l-2.84-3.97,1.39-1.45,3.91,5.42h-2.46ZM94.81,26.17c-.88,0-1.63-.18-2.27-.55-.63-.37-1.12-.89-1.46-1.56-.34-.67-.51-1.47-.51-2.38s.17-1.69.51-2.36c.34-.68.83-1.21,1.44-1.59.62-.38,1.34-.57,2.18-.57.54,0,1.05.09,1.52.26.48.17.91.44,1.27.8.37.36.66.82.88,1.38.21.55.32,1.21.32,1.98v.63h-7.15v-1.39h5.18c0-.39-.09-.74-.26-1.05-.17-.31-.4-.56-.7-.73-.3-.18-.64-.27-1.03-.27-.42,0-.79.1-1.11.31-.32.2-.57.47-.74.8-.17.33-.26.68-.27,1.07v1.21c0,.51.09.94.28,1.31.19.36.45.64.78.83.33.19.72.28,1.17.28.3,0,.57-.04.81-.12.24-.09.45-.21.63-.38.18-.17.31-.37.4-.62l1.92.22c-.12.51-.35.95-.69,1.33-.34.38-.77.67-1.3.88-.53.2-1.13.31-1.81.31ZM104.79,17.27v1.59h-5.02v-1.59h5.02ZM101.01,15.18h2.06v8.19c0,.28.04.49.12.64.09.14.2.24.34.3.14.05.3.08.47.08.13,0,.25,0,.35-.03.11-.02.19-.04.25-.05l.35,1.61c-.11.04-.27.08-.47.12-.2.05-.45.07-.74.08-.52.02-.98-.06-1.39-.23-.41-.17-.74-.44-.98-.81-.24-.36-.36-.82-.35-1.36v-8.53Z"/>
</svg>