<svg width="32" height="32" viewBox="0 0 32 32" fill="none" xmlns="http://www.w3.org/2000/svg">
<path d="M16 32C24.8366 32 32 24.8366 32 16C32 7.16344 24.8366 0 16 0C7.16344 0 0 7.16344 0 16C0 24.8366 7.16344 32 16 32Z" fill="#A3A3A3" fill-opacity="0.2"/>
<path fill-rule="evenodd" clip-rule="evenodd" d="M9 0C7.93913 0 6.92172 0.421427 6.17157 1.17157C5.42143 1.92172 5 2.93913 5 4V28C5 29.0609 5.42143 30.0783 6.17157 30.8284C6.92172 31.5786 7.93913 32 9 32H23C24.0609 32 25.0783 31.5786 25.8284 30.8284C26.5786 30.0783 27 29.0609 27 28V4C27 2.93913 26.5786 1.92172 25.8284 1.17157C25.0783 0.421427 24.0609 0 23 0L9 0ZM9 2C8.46957 2 7.96086 2.21071 7.58579 2.58579C7.21071 2.96086 7 3.46957 7 4V28C7 28.5304 7.21071 29.0391 7.58579 29.4142C7.96086 29.7893 8.46957 30 9 30H23C23.5304 30 24.0391 29.7893 24.4142 29.4142C24.7893 29.0391 25 28.5304 25 28V4C25 3.46957 24.7893 2.96086 24.4142 2.58579C24.0391 2.21071 23.5304 2 23 2H21.618C21.4323 2.0001 21.2504 2.05188 21.0925 2.14955C20.9346 2.24722 20.807 2.38692 20.724 2.553L20.276 3.447C20.193 3.61308 20.0654 3.75278 19.9075 3.85045C19.7496 3.94812 19.5677 3.9999 19.382 4H12.618C12.4323 3.9999 12.2504 3.94812 12.0925 3.85045C11.9346 3.75278 11.807 3.61308 11.724 3.447L11.276 2.553C11.193 2.38692 11.0654 2.24722 10.9075 2.14955C10.7496 2.05188 10.5677 2.0001 10.382 2H9Z" fill="#A3A3A3"/>
<path d="M9 8C9 7.46957 9.21071 6.96086 9.58579 6.58579C9.96086 6.21071 10.4696 6 11 6H21C21.5304 6 22.0391 6.21071 22.4142 6.58579C22.7893 6.96086 23 7.46957 23 8V10C23 10.5304 22.7893 11.0391 22.4142 11.4142C22.0391 11.7893 21.5304 12 21 12H11C10.4696 12 9.96086 11.7893 9.58579 11.4142C9.21071 11.0391 9 10.5304 9 10V8Z" fill="#737373"/>
</svg>
