<svg width="24" height="24" viewBox="0 0 24 24" fill="none" xmlns="http://www.w3.org/2000/svg">
<g clip-path="url(#clip0_26_46)">
<path d="M12 23.5C18.3513 23.5 23.5 18.3513 23.5 12C23.5 5.64873 18.3513 0.5 12 0.5C5.64873 0.5 0.5 5.64873 0.5 12C0.5 18.3513 5.64873 23.5 12 23.5Z" stroke="#D4D4D4"/>
<path d="M9.5 14.382V9.61803C9.5 9.53276 9.52181 9.44891 9.56335 9.37445C9.60489 9.29999 9.66478 9.23739 9.73733 9.1926C9.80988 9.1478 9.89268 9.12231 9.97786 9.11853C10.063 9.11476 10.1478 9.13283 10.224 9.17102L14.988 11.553C15.0709 11.5946 15.1407 11.6584 15.1894 11.7374C15.2382 11.8163 15.264 11.9073 15.264 12C15.264 12.0928 15.2382 12.1837 15.1894 12.2627C15.1407 12.3416 15.0709 12.4055 14.988 12.447L10.224 14.829C10.1478 14.8672 10.063 14.8853 9.97786 14.8815C9.89268 14.8777 9.80988 14.8522 9.73733 14.8075C9.66478 14.7627 9.60489 14.7001 9.56335 14.6256C9.52181 14.5511 9.5 14.4673 9.5 14.382Z" fill="#A3A3A3" stroke="#A3A3A3"/>
</g>
<defs>
<clipPath id="clip0_26_46">
<rect width="24" height="24" fill="white"/>
</clipPath>
</defs>
</svg>
